<?xml version="1.0" encoding="UTF-8" standalone="no"?>
<!DOCTYPE svg PUBLIC "-//W3C//DTD SVG 1.1//EN"
 "http://www.w3.org/Graphics/SVG/1.1/DTD/svg11.dtd">
<!-- Generated by graphviz version 12.2.1 (20241206.2353)
 -->
<!-- Title: manifest Pages: 1 -->
<svg width="673pt" height="758pt"
 viewBox="0.00 0.00 673.27 757.55" xmlns="http://www.w3.org/2000/svg" xmlns:xlink="http://www.w3.org/1999/xlink">
<g id="graph0" class="graph" transform="scale(1 1) rotate(0) translate(32.4 725.15)">
<title>manifest</title>
<polygon fill="#f7f9fb" stroke="none" points="-32.4,32.4 -32.4,-725.15 640.87,-725.15 640.87,32.4 -32.4,32.4"/>
<text text-anchor="start" x="8" y="-671.7" font-family="Helvetica,sans-Serif" font-weight="bold" font-size="19.00" fill="#0f172a">Document&#45;creation workflow graph</text>
<text text-anchor="start" x="8" y="-661.25" font-family="Helvetica,sans-Serif" font-size="10.00" fill="#475569">minimal&#45;memo&#45;001 &#160;· &#160;4 nodes, 4 edges &#160;· &#160;1 repair routes &#160;· &#160;fixed_linear_sequence</text>
<g id="clust1" class="cluster">
<title>cluster_key</title>
<path fill="#ffffff" stroke="#e2e8f0" stroke-width="1.1" d="M284.47,-277.62C284.47,-277.62 588.47,-277.62 588.47,-277.62 594.47,-277.62 600.47,-283.62 600.47,-289.62 600.47,-289.62 600.47,-635.75 600.47,-635.75 600.47,-641.75 594.47,-647.75 588.47,-647.75 588.47,-647.75 284.47,-647.75 284.47,-647.75 278.47,-647.75 272.47,-641.75 272.47,-635.75 272.47,-635.75 272.47,-289.62 272.47,-289.62 272.47,-283.62 278.47,-277.62 284.47,-277.62"/>
</g>
<!-- s0&#45;contract&#45;compile -->
<g id="node1" class="node">
<title>s0&#45;contract&#45;compile</title>
<path fill="#ffffff" stroke="#3b4cca" stroke-width="2" d="M234.47,-563.5C234.47,-563.5 26.47,-563.5 26.47,-563.5 20.47,-563.5 14.47,-557.5 14.47,-551.5 14.47,-551.5 14.47,-492.25 14.47,-492.25 14.47,-486.25 20.47,-480.25 26.47,-480.25 26.47,-480.25 234.47,-480.25 234.47,-480.25 240.47,-480.25 246.47,-486.25 246.47,-492.25 246.47,-492.25 246.47,-551.5 246.47,-551.5 246.47,-557.5 240.47,-563.5 234.47,-563.5"/>
<polygon fill="#3b4cca" stroke="none" points="14.47,-558.5 14.47,-563.5 246.47,-563.5 246.47,-558.5 14.47,-558.5"/>
<text text-anchor="start" x="16.47" y="-543.85" font-family="Helvetica,sans-Serif" font-weight="bold" font-size="7.00" fill="#3b4cca">S0 &#160;· &#160;AGENT &#160;· &#160;ENTRY</text>
<text text-anchor="start" x="16.47" y="-526.85" font-family="Helvetica,sans-Serif" font-weight="bold" font-size="12.00" fill="#0f172a">Contract Compile</text>
<text text-anchor="start" x="16.47" y="-513.9" font-family="Helvetica,sans-Serif" font-size="8.00" fill="#475569">Compile the response contract for a</text>
<text text-anchor="start" x="16.47" y="-504.9" font-family="Helvetica,sans-Serif" font-size="8.00" fill="#475569">one&#45;page memo</text>
<text text-anchor="start" x="16.47" y="-488.85" font-family="Helvetica,sans-Serif" font-size="7.00" fill="#94a3b8">$1.00 &#160;· &#160;5m &#160;· &#160;r1</text>
<text text-anchor="start" x="242.22" y="-488.85" font-family="Helvetica,sans-Serif" font-size="7.00" fill="#94a3b8"> </text>
</g>
<!-- s4&#45;compose -->
<g id="node2" class="node">
<title>s4&#45;compose</title>
<path fill="#ffffff" stroke="#e2e8f0" stroke-width="1.1" d="M234.47,-363C234.47,-363 26.47,-363 26.47,-363 20.47,-363 14.47,-357 14.47,-351 14.47,-351 14.47,-300.75 14.47,-300.75 14.47,-294.75 20.47,-288.75 26.47,-288.75 26.47,-288.75 234.47,-288.75 234.47,-288.75 240.47,-288.75 246.47,-294.75 246.47,-300.75 246.47,-300.75 246.47,-351 246.47,-351 246.47,-357 240.47,-363 234.47,-363"/>
<polygon fill="#3b4cca" stroke="none" points="14.47,-358 14.47,-363 246.47,-363 246.47,-358 14.47,-358"/>
<text text-anchor="start" x="16.47" y="-343.35" font-family="Helvetica,sans-Serif" font-weight="bold" font-size="7.00" fill="#3b4cca">S4 &#160;· &#160;AGENT</text>
<text text-anchor="start" x="16.47" y="-326.35" font-family="Helvetica,sans-Serif" font-weight="bold" font-size="12.00" fill="#0f172a">Compose</text>
<text text-anchor="start" x="16.47" y="-313.4" font-family="Helvetica,sans-Serif" font-size="8.00" fill="#475569">Compose the memo from the contract.</text>
<text text-anchor="start" x="16.47" y="-297.35" font-family="Helvetica,sans-Serif" font-size="7.00" fill="#94a3b8">$4.00 &#160;· &#160;20m &#160;· &#160;r2</text>
<text text-anchor="start" x="242.22" y="-297.35" font-family="Helvetica,sans-Serif" font-size="7.00" fill="#94a3b8"> </text>
</g>
<!-- s0&#45;contract&#45;compile&#45;&gt;s4&#45;compose -->
<g id="edge1" class="edge">
<title>s0&#45;contract&#45;compile&#45;&gt;s4&#45;compose</title>
<path fill="none" stroke="#64748b" stroke-width="1.6" d="M130.47,-479.26C130.47,-447.57 130.47,-404.04 130.47,-371.61"/>
<polygon fill="#64748b" stroke="#64748b" stroke-width="1.6" points="132.57,-371.62 130.47,-365.62 128.37,-371.62 132.57,-371.62"/>
</g>
<!-- s6&#45;review&#45;mechanical -->
<g id="node3" class="node">
<title>s6&#45;review&#45;mechanical</title>
<path fill="#ffffff" stroke="#e2e8f0" stroke-width="1.1" d="M234.47,-234.5C234.47,-234.5 26.47,-234.5 26.47,-234.5 20.47,-234.5 14.47,-228.5 14.47,-222.5 14.47,-222.5 14.47,-149.5 14.47,-149.5 14.47,-143.5 20.47,-137.5 26.47,-137.5 26.47,-137.5 234.47,-137.5 234.47,-137.5 240.47,-137.5 246.47,-143.5 246.47,-149.5 246.47,-149.5 246.47,-222.5 246.47,-222.5 246.47,-228.5 240.47,-234.5 234.47,-234.5"/>
<polygon fill="#7c3aed" stroke="none" points="14.47,-229.5 14.47,-234.5 246.47,-234.5 246.47,-229.5 14.47,-229.5"/>
<text text-anchor="start" x="16.47" y="-214.85" font-family="Helvetica,sans-Serif" font-weight="bold" font-size="7.00" fill="#7c3aed">S6 &#160;· &#160;GATE</text>
<text text-anchor="start" x="16.47" y="-197.85" font-family="Helvetica,sans-Serif" font-weight="bold" font-size="12.00" fill="#0f172a">Review Mechanical</text>
<text text-anchor="start" x="16.47" y="-184.9" font-family="Helvetica,sans-Serif" font-size="8.00" fill="#475569">Run the deterministic review layer</text>
<text text-anchor="start" x="16.47" y="-175.9" font-family="Helvetica,sans-Serif" font-size="8.00" fill="#475569">over the composed memo.</text>
<text text-anchor="start" x="16.47" y="-159.85" font-family="Helvetica,sans-Serif" font-size="7.00" fill="#94a3b8">$0.50 &#160;· &#160;5m &#160;· &#160;r2</text>
<text text-anchor="start" x="242.22" y="-159.85" font-family="Helvetica,sans-Serif" font-size="7.00" fill="#94a3b8"> </text>
<text text-anchor="start" x="16.47" y="-147.6" font-family="Helvetica,sans-Serif" font-weight="bold" font-size="7.00" fill="#dc2626">↩ s4&#45;compose ×2</text>
</g>
<!-- s4&#45;compose&#45;&gt;s6&#45;review&#45;mechanical -->
<g id="edge2" class="edge">
<title>s4&#45;compose&#45;&gt;s6&#45;review&#45;mechanical</title>
<path fill="none" stroke="#64748b" stroke-width="1.6" d="M130.47,-288.29C130.47,-274.49 130.47,-258.45 130.47,-243.27"/>
<polygon fill="#64748b" stroke="#64748b" stroke-width="1.6" points="132.57,-243.36 130.47,-237.36 128.37,-243.36 132.57,-243.36"/>
</g>
<!-- s6&#45;review&#45;mechanical&#45;&gt;s4&#45;compose -->
<g id="edge4" class="edge">
<title>s6&#45;review&#45;mechanical:w&#45;&gt;s4&#45;compose:w</title>
<path fill="none" stroke="#dc2626" stroke-width="1.8" stroke-dasharray="5,2" d="M13.47,-186C-8.09,-186 0.36,-218.19 14.47,-234.5 55.14,-281.53 112.27,-210.06 152.47,-257.5 154.84,-260.3 154.84,-262.95 152.47,-265.75 112.27,-313.19 55.29,-241.85 14.47,-288.75 6.17,-298.28 0.31,-314.98 5.43,-322.28"/>
<polygon fill="#dc2626" stroke="#dc2626" stroke-width="1.8" points="11.46,-324.98 3.79,-325 10.11,-324.81 4.91,-322.49 5.07,-322.12 5.24,-321.76 10.43,-324.08 6.36,-319.25 11.46,-324.98"/>
<text text-anchor="start" x="154.24" y="-259.1" font-family="Helvetica,sans-Serif" font-size="7.00" fill="#dc2626">composition ×2</text>
</g>
<!-- s7&#45;closure&#45;receipt -->
<g id="node4" class="node">
<title>s7&#45;closure&#45;receipt</title>
<path fill="#ffffff" stroke="#0e7490" stroke-width="2" d="M234.47,-83.25C234.47,-83.25 26.47,-83.25 26.47,-83.25 20.47,-83.25 14.47,-77.25 14.47,-71.25 14.47,-71.25 14.47,-12 14.47,-12 14.47,-6 20.47,0 26.47,0 26.47,0 234.47,0 234.47,0 240.47,0 246.47,-6 246.47,-12 246.47,-12 246.47,-71.25 246.47,-71.25 246.47,-77.25 240.47,-83.25 234.47,-83.25"/>
<polygon fill="#0e7490" stroke="none" points="14.47,-78.25 14.47,-83.25 246.47,-83.25 246.47,-78.25 14.47,-78.25"/>
<text text-anchor="start" x="16.47" y="-63.6" font-family="Helvetica,sans-Serif" font-weight="bold" font-size="7.00" fill="#0e7490">S7 &#160;· &#160;TOOL &#160;· &#160;TERMINAL</text>
<text text-anchor="start" x="16.47" y="-46.6" font-family="Helvetica,sans-Serif" font-weight="bold" font-size="12.00" fill="#0f172a">Closure Receipt</text>
<text text-anchor="start" x="16.47" y="-33.65" font-family="Helvetica,sans-Serif" font-size="8.00" fill="#475569">Emit the closure receipt and prove</text>
<text text-anchor="start" x="16.47" y="-24.65" font-family="Helvetica,sans-Serif" font-size="8.00" fill="#475569">closure mechanically.</text>
<text text-anchor="start" x="16.47" y="-8.6" font-family="Helvetica,sans-Serif" font-size="7.00" fill="#94a3b8">$0.50 &#160;· &#160;2m &#160;· &#160;r1</text>
<text text-anchor="start" x="242.22" y="-8.6" font-family="Helvetica,sans-Serif" font-size="7.00" fill="#94a3b8"> </text>
</g>
<!-- s6&#45;review&#45;mechanical&#45;&gt;s7&#45;closure&#45;receipt -->
<g id="edge3" class="edge">
<title>s6&#45;review&#45;mechanical&#45;&gt;s7&#45;closure&#45;receipt</title>
<path fill="none" stroke="#15803d" stroke-width="1.6" d="M130.47,-137.2C130.47,-122.74 130.47,-106.85 130.47,-92.28"/>
<polygon fill="#15803d" stroke="#15803d" stroke-width="1.6" points="132.57,-92.29 130.47,-86.29 128.37,-92.29 132.57,-92.29"/>
<text text-anchor="middle" x="189.72" y="-107.38" font-family="Helvetica,sans-Serif" font-size="7.50" fill="#15803d"> every deterministic check passed </text>
</g>
<!-- __legend -->
<g id="node5" class="node">
<title>__legend</title>
<polygon fill="#ffffff" stroke="none" stroke-width="1.1" points="586.47,-633.75 286.47,-633.75 286.47,-410 586.47,-410 586.47,-633.75"/>
<text text-anchor="start" x="289.47" y="-621.25" font-family="Helvetica,sans-Serif" font-weight="bold" font-size="10.00" fill="#0f172a">HOW TO READ THIS</text>
<text text-anchor="start" x="289.47" y="-600.85" font-family="Helvetica,sans-Serif" font-weight="bold" font-size="7.00" fill="#94a3b8">NODE KIND — the stripe above each card</text>
<polygon fill="#3b4cca" stroke="none" points="286.47,-581.25 286.47,-596.25 321.22,-596.25 321.22,-581.25 286.47,-581.25"/>
<text text-anchor="start" x="289.47" y="-586.23" font-family="Helvetica,sans-Serif" font-size="7.00" fill="#3b4cca">__</text>
<text text-anchor="start" x="324.22" y="-585.65" font-family="Helvetica,sans-Serif" font-size="8.00" fill="#475569">agent — runs a validated prompt</text>
<polygon fill="#0e7490" stroke="none" points="286.47,-566.25 286.47,-581.25 321.22,-581.25 321.22,-566.25 286.47,-566.25"/>
<text text-anchor="start" x="289.47" y="-571.23" font-family="Helvetica,sans-Serif" font-size="7.00" fill="#0e7490">__</text>
<text text-anchor="start" x="324.22" y="-570.65" font-family="Helvetica,sans-Serif" font-size="8.00" fill="#475569">tool — deterministic script</text>
<polygon fill="#7c3aed" stroke="none" points="286.47,-551.25 286.47,-566.25 321.22,-566.25 321.22,-551.25 286.47,-551.25"/>
<text text-anchor="start" x="289.47" y="-556.23" font-family="Helvetica,sans-Serif" font-size="7.00" fill="#7c3aed">__</text>
<text text-anchor="start" x="324.22" y="-555.65" font-family="Helvetica,sans-Serif" font-size="8.00" fill="#475569">gate — deterministic pass/fail</text>
<text text-anchor="start" x="289.47" y="-533.6" font-family="Helvetica,sans-Serif" font-weight="bold" font-size="7.00" fill="#94a3b8">EDGE TYPE</text>
<text text-anchor="start" x="289.47" y="-516.5" font-family="Helvetica,sans-Serif" font-weight="bold" font-size="10.00" fill="#64748b">——</text>
<text text-anchor="start" x="324.22" y="-517.27" font-family="Helvetica,sans-Serif" font-size="8.00" fill="#475569">sequential</text>
<text text-anchor="start" x="289.47" y="-499.25" font-family="Helvetica,sans-Serif" font-weight="bold" font-size="10.00" fill="#15803d">——</text>
<text text-anchor="start" x="324.22" y="-500.02" font-family="Helvetica,sans-Serif" font-size="8.00" fill="#475569">conditional — fires on pass</text>
<text text-anchor="start" x="289.47" y="-482" font-family="Helvetica,sans-Serif" font-weight="bold" font-size="10.00" fill="#0891b2">– –</text>
<text text-anchor="start" x="324.22" y="-482.77" font-family="Helvetica,sans-Serif" font-size="8.00" fill="#475569">parallel fan&#45;out</text>
<text text-anchor="start" x="289.47" y="-464.75" font-family="Helvetica,sans-Serif" font-weight="bold" font-size="10.00" fill="#dc2626">– –</text>
<text text-anchor="start" x="324.22" y="-465.52" font-family="Helvetica,sans-Serif" font-size="8.00" fill="#475569">repair back&#45;edge</text>
<text text-anchor="start" x="289.47" y="-441.4" font-family="Helvetica,sans-Serif" font-size="8.00" fill="#475569">Every repair back&#45;edge runs in the left gutter.</text>
<text text-anchor="start" x="289.47" y="-432.4" font-family="Helvetica,sans-Serif" font-size="8.00" fill="#475569">Its label names the defect class that owns it</text>
<text text-anchor="start" x="289.47" y="-423.4" font-family="Helvetica,sans-Serif" font-size="8.00" fill="#475569">and how many times it may fire before the</text>
<text text-anchor="start" x="289.47" y="-414.4" font-family="Helvetica,sans-Serif" font-size="8.00" fill="#475569">terminal escape takes over.</text>
</g>
<!-- __annex -->
<g id="node6" class="node">
<title>__annex</title>
<polygon fill="#ffffff" stroke="none" stroke-width="1.1" points="586.47,-360.12 286.47,-360.12 286.47,-291.62 586.47,-291.62 586.47,-360.12"/>
<text text-anchor="start" x="290.47" y="-346.62" font-family="Helvetica,sans-Serif" font-weight="bold" font-size="10.00" fill="#0f172a">THE SEVEN REPAIR ROUTES</text>
<text text-anchor="start" x="290.47" y="-322.23" font-family="Helvetica,sans-Serif" font-weight="bold" font-size="7.00" fill="#94a3b8">WHEN IT FAILS HERE</text>
<text text-anchor="start" x="378.72" y="-322.23" font-family="Helvetica,sans-Serif" font-weight="bold" font-size="7.00" fill="#94a3b8">IT GOES BACK TO</text>
<text text-anchor="start" x="450.47" y="-322.23" font-family="Helvetica,sans-Serif" font-weight="bold" font-size="7.00" fill="#94a3b8">CLASS</text>
<text text-anchor="start" x="500.47" y="-322.23" font-family="Helvetica,sans-Serif" font-weight="bold" font-size="7.00" fill="#94a3b8">MAX</text>
<polygon fill="#e2e8f0" stroke="none" points="286.47,-308.62 286.47,-316.62 520.22,-316.62 520.22,-308.62 286.47,-308.62"/>
<text text-anchor="start" x="290.47" y="-297.02" font-family="Helvetica,sans-Serif" font-size="8.00" fill="#0f172a">S6 Review Mechanical</text>
<text text-anchor="start" x="378.72" y="-297.02" font-family="Helvetica,sans-Serif" font-size="8.00" fill="#dc2626">S4 Compose</text>
<text text-anchor="start" x="450.47" y="-297.02" font-family="Helvetica,sans-Serif" font-size="8.00" fill="#475569">composition</text>
<text text-anchor="start" x="507.22" y="-297.02" font-family="Helvetica,sans-Serif" font-size="8.00" fill="#475569">×2</text>
</g>
<!-- __legend&#45;&gt;__annex -->
</g>
</svg>
